<mxfile host="app.diagrams.net" modified="2020-06-02T14:16:12.186Z" agent="5.0 (X11)" etag="aZIlqOLqoY-XKjiW-UbO" version="13.1.12" type="github">
  <diagram id="VwMm0XUnEoj2M0eh2boh" name="Page-1">
    <mxGraphModel dx="924" dy="1534" grid="1" gridSize="10" guides="1" tooltips="1" connect="1" arrows="1" fold="1" page="1" pageScale="1" pageWidth="827" pageHeight="1169" math="0" shadow="0">
      <root>
        <mxCell id="0" />
        <mxCell id="1" parent="0" />
        <mxCell id="lZMGofD5MqRVl8ti8nae-3" value="" style="edgeStyle=orthogonalEdgeStyle;rounded=0;orthogonalLoop=1;jettySize=auto;html=1;" parent="1" source="lZMGofD5MqRVl8ti8nae-1" target="lZMGofD5MqRVl8ti8nae-2" edge="1">
          <mxGeometry relative="1" as="geometry" />
        </mxCell>
        <mxCell id="lZMGofD5MqRVl8ti8nae-5" value="" style="edgeStyle=orthogonalEdgeStyle;rounded=0;orthogonalLoop=1;jettySize=auto;html=1;" parent="1" source="lZMGofD5MqRVl8ti8nae-1" target="lZMGofD5MqRVl8ti8nae-4" edge="1">
          <mxGeometry relative="1" as="geometry" />
        </mxCell>
        <mxCell id="lZMGofD5MqRVl8ti8nae-1" value="Powerpoint 1" style="rounded=0;whiteSpace=wrap;html=1;" parent="1" vertex="1">
          <mxGeometry x="80" y="80" width="120" height="60" as="geometry" />
        </mxCell>
        <mxCell id="lZMGofD5MqRVl8ti8nae-4" value="" style="rounded=0;whiteSpace=wrap;html=1;" parent="1" vertex="1">
          <mxGeometry x="80" y="220" width="120" height="60" as="geometry" />
        </mxCell>
        <mxCell id="lZMGofD5MqRVl8ti8nae-2" value="" style="rounded=0;whiteSpace=wrap;html=1;" parent="1" vertex="1">
          <mxGeometry x="280" y="80" width="120" height="60" as="geometry" />
        </mxCell>
        <mxCell id="lZMGofD5MqRVl8ti8nae-6" value="&lt;div&gt;Eat a chocolate&lt;/div&gt;&lt;div&gt;1/3&lt;/div&gt;" style="text;html=1;strokeColor=none;fillColor=none;align=center;verticalAlign=middle;whiteSpace=wrap;rounded=0;" parent="1" vertex="1">
          <mxGeometry x="220" y="70" width="40" height="20" as="geometry" />
        </mxCell>
        <mxCell id="lZMGofD5MqRVl8ti8nae-7" value="&lt;div&gt;Don&#39;t eat a chocolate&lt;/div&gt;&lt;div&gt;2/3&lt;br&gt;&lt;/div&gt;" style="text;html=1;strokeColor=none;fillColor=none;align=center;verticalAlign=middle;whiteSpace=wrap;rounded=0;" parent="1" vertex="1">
          <mxGeometry x="160" y="170" width="40" height="20" as="geometry" />
        </mxCell>
        <mxCell id="lZMGofD5MqRVl8ti8nae-8" value="" style="edgeStyle=orthogonalEdgeStyle;rounded=0;orthogonalLoop=1;jettySize=auto;html=1;" parent="1" source="lZMGofD5MqRVl8ti8nae-10" target="lZMGofD5MqRVl8ti8nae-12" edge="1">
          <mxGeometry relative="1" as="geometry" />
        </mxCell>
        <mxCell id="lZMGofD5MqRVl8ti8nae-9" value="" style="edgeStyle=orthogonalEdgeStyle;rounded=0;orthogonalLoop=1;jettySize=auto;html=1;" parent="1" source="lZMGofD5MqRVl8ti8nae-10" target="lZMGofD5MqRVl8ti8nae-11" edge="1">
          <mxGeometry relative="1" as="geometry" />
        </mxCell>
        <mxCell id="lZMGofD5MqRVl8ti8nae-10" value="0 chocolates eaten" style="rounded=0;whiteSpace=wrap;html=1;" parent="1" vertex="1">
          <mxGeometry x="80" y="220" width="120" height="60" as="geometry" />
        </mxCell>
        <mxCell id="lZMGofD5MqRVl8ti8nae-11" value="0 chocolates eaten" style="rounded=0;whiteSpace=wrap;html=1;" parent="1" vertex="1">
          <mxGeometry x="80" y="360" width="120" height="60" as="geometry" />
        </mxCell>
        <mxCell id="lZMGofD5MqRVl8ti8nae-12" value="" style="rounded=0;whiteSpace=wrap;html=1;" parent="1" vertex="1">
          <mxGeometry x="280" y="220" width="120" height="60" as="geometry" />
        </mxCell>
        <mxCell id="lZMGofD5MqRVl8ti8nae-15" value="" style="edgeStyle=orthogonalEdgeStyle;rounded=0;orthogonalLoop=1;jettySize=auto;html=1;" parent="1" source="lZMGofD5MqRVl8ti8nae-17" target="lZMGofD5MqRVl8ti8nae-19" edge="1">
          <mxGeometry relative="1" as="geometry" />
        </mxCell>
        <mxCell id="lZMGofD5MqRVl8ti8nae-16" value="" style="edgeStyle=orthogonalEdgeStyle;rounded=0;orthogonalLoop=1;jettySize=auto;html=1;" parent="1" source="lZMGofD5MqRVl8ti8nae-17" target="lZMGofD5MqRVl8ti8nae-18" edge="1">
          <mxGeometry relative="1" as="geometry" />
        </mxCell>
        <mxCell id="lZMGofD5MqRVl8ti8nae-17" value="1 chocolate eaten" style="rounded=0;whiteSpace=wrap;html=1;" parent="1" vertex="1">
          <mxGeometry x="280" y="80" width="120" height="60" as="geometry" />
        </mxCell>
        <mxCell id="lZMGofD5MqRVl8ti8nae-18" value="1 chocolate eaten" style="rounded=0;whiteSpace=wrap;html=1;" parent="1" vertex="1">
          <mxGeometry x="280" y="220" width="120" height="60" as="geometry" />
        </mxCell>
        <mxCell id="lZMGofD5MqRVl8ti8nae-19" value="2 chocolates eaten" style="rounded=0;whiteSpace=wrap;html=1;" parent="1" vertex="1">
          <mxGeometry x="480" y="80" width="120" height="60" as="geometry" />
        </mxCell>
        <mxCell id="lZMGofD5MqRVl8ti8nae-23" value="&lt;div&gt;Eat a chocolate&lt;/div&gt;&lt;div&gt;1/3&lt;/div&gt;" style="text;html=1;strokeColor=none;fillColor=none;align=center;verticalAlign=middle;whiteSpace=wrap;rounded=0;" parent="1" vertex="1">
          <mxGeometry x="420" y="70" width="40" height="20" as="geometry" />
        </mxCell>
        <mxCell id="lZMGofD5MqRVl8ti8nae-24" value="&lt;div&gt;Eat a chocolate&lt;/div&gt;&lt;div&gt;1/3&lt;/div&gt;" style="text;html=1;strokeColor=none;fillColor=none;align=center;verticalAlign=middle;whiteSpace=wrap;rounded=0;" parent="1" vertex="1">
          <mxGeometry x="220" y="210" width="40" height="20" as="geometry" />
        </mxCell>
        <mxCell id="lZMGofD5MqRVl8ti8nae-26" value="&lt;div&gt;Don&#39;t eat a chocolate&lt;/div&gt;&lt;div&gt;2/3&lt;br&gt;&lt;/div&gt;" style="text;html=1;strokeColor=none;fillColor=none;align=center;verticalAlign=middle;whiteSpace=wrap;rounded=0;" parent="1" vertex="1">
          <mxGeometry x="160" y="310" width="40" height="20" as="geometry" />
        </mxCell>
        <mxCell id="lZMGofD5MqRVl8ti8nae-27" value="&lt;div&gt;Don&#39;t eat a chocolate&lt;/div&gt;&lt;div&gt;2/3&lt;br&gt;&lt;/div&gt;" style="text;html=1;strokeColor=none;fillColor=none;align=center;verticalAlign=middle;whiteSpace=wrap;rounded=0;" parent="1" vertex="1">
          <mxGeometry x="360" y="170" width="40" height="20" as="geometry" />
        </mxCell>
        <mxCell id="Mq0Bu19etkbV9ypL9swK-3" value="" style="edgeStyle=orthogonalEdgeStyle;rounded=0;orthogonalLoop=1;jettySize=auto;html=1;" edge="1" parent="1" source="Mq0Bu19etkbV9ypL9swK-1" target="Mq0Bu19etkbV9ypL9swK-2">
          <mxGeometry relative="1" as="geometry" />
        </mxCell>
        <mxCell id="Mq0Bu19etkbV9ypL9swK-6" value="" style="edgeStyle=orthogonalEdgeStyle;rounded=0;orthogonalLoop=1;jettySize=auto;html=1;" edge="1" parent="1" source="Mq0Bu19etkbV9ypL9swK-1" target="Mq0Bu19etkbV9ypL9swK-5">
          <mxGeometry relative="1" as="geometry" />
        </mxCell>
        <mxCell id="Mq0Bu19etkbV9ypL9swK-1" value="Powerpoint 2" style="rounded=0;whiteSpace=wrap;html=1;" vertex="1" parent="1">
          <mxGeometry x="80" y="460" width="120" height="60" as="geometry" />
        </mxCell>
        <mxCell id="Mq0Bu19etkbV9ypL9swK-16" value="" style="edgeStyle=orthogonalEdgeStyle;rounded=0;orthogonalLoop=1;jettySize=auto;html=1;" edge="1" parent="1" source="Mq0Bu19etkbV9ypL9swK-5" target="Mq0Bu19etkbV9ypL9swK-10">
          <mxGeometry relative="1" as="geometry" />
        </mxCell>
        <mxCell id="Mq0Bu19etkbV9ypL9swK-18" value="" style="edgeStyle=orthogonalEdgeStyle;rounded=0;orthogonalLoop=1;jettySize=auto;html=1;" edge="1" parent="1" source="Mq0Bu19etkbV9ypL9swK-5" target="Mq0Bu19etkbV9ypL9swK-17">
          <mxGeometry relative="1" as="geometry" />
        </mxCell>
        <mxCell id="Mq0Bu19etkbV9ypL9swK-5" value="0 winning tickets" style="rounded=0;whiteSpace=wrap;html=1;" vertex="1" parent="1">
          <mxGeometry x="80" y="600" width="120" height="60" as="geometry" />
        </mxCell>
        <mxCell id="Mq0Bu19etkbV9ypL9swK-17" value="0 winning tickets" style="rounded=0;whiteSpace=wrap;html=1;" vertex="1" parent="1">
          <mxGeometry x="80" y="740" width="120" height="60" as="geometry" />
        </mxCell>
        <mxCell id="Mq0Bu19etkbV9ypL9swK-11" value="" style="edgeStyle=orthogonalEdgeStyle;rounded=0;orthogonalLoop=1;jettySize=auto;html=1;" edge="1" parent="1" source="Mq0Bu19etkbV9ypL9swK-2" target="Mq0Bu19etkbV9ypL9swK-10">
          <mxGeometry relative="1" as="geometry" />
        </mxCell>
        <mxCell id="Mq0Bu19etkbV9ypL9swK-14" value="" style="edgeStyle=orthogonalEdgeStyle;rounded=0;orthogonalLoop=1;jettySize=auto;html=1;" edge="1" parent="1" source="Mq0Bu19etkbV9ypL9swK-2" target="Mq0Bu19etkbV9ypL9swK-13">
          <mxGeometry relative="1" as="geometry" />
        </mxCell>
        <mxCell id="Mq0Bu19etkbV9ypL9swK-2" value="1 winning ticket" style="rounded=0;whiteSpace=wrap;html=1;" vertex="1" parent="1">
          <mxGeometry x="280" y="460" width="120" height="60" as="geometry" />
        </mxCell>
        <mxCell id="Mq0Bu19etkbV9ypL9swK-13" value="2 winning tickets" style="rounded=0;whiteSpace=wrap;html=1;" vertex="1" parent="1">
          <mxGeometry x="480" y="460" width="120" height="60" as="geometry" />
        </mxCell>
        <mxCell id="Mq0Bu19etkbV9ypL9swK-10" value="1 winning ticket" style="rounded=0;whiteSpace=wrap;html=1;" vertex="1" parent="1">
          <mxGeometry x="280" y="600" width="120" height="60" as="geometry" />
        </mxCell>
        <mxCell id="Mq0Bu19etkbV9ypL9swK-4" value="&lt;div&gt;Winning ticket&lt;/div&gt;&lt;div&gt;3/5&lt;br&gt;&lt;/div&gt;" style="text;html=1;strokeColor=none;fillColor=none;align=center;verticalAlign=middle;whiteSpace=wrap;rounded=0;" vertex="1" parent="1">
          <mxGeometry x="220" y="450" width="40" height="20" as="geometry" />
        </mxCell>
        <mxCell id="Mq0Bu19etkbV9ypL9swK-9" value="&lt;div&gt;Losing ticket&lt;/div&gt;&lt;div&gt;2/5&lt;br&gt;&lt;/div&gt;" style="text;html=1;strokeColor=none;fillColor=none;align=center;verticalAlign=middle;whiteSpace=wrap;rounded=0;" vertex="1" parent="1">
          <mxGeometry x="150" y="510" width="40" height="100" as="geometry" />
        </mxCell>
        <mxCell id="Mq0Bu19etkbV9ypL9swK-12" value="&lt;div&gt;Losing ticket&lt;/div&gt;&lt;div&gt;2/5&lt;br&gt;&lt;/div&gt;" style="text;html=1;strokeColor=none;fillColor=none;align=center;verticalAlign=middle;whiteSpace=wrap;rounded=0;" vertex="1" parent="1">
          <mxGeometry x="350" y="510" width="40" height="100" as="geometry" />
        </mxCell>
        <mxCell id="Mq0Bu19etkbV9ypL9swK-15" value="&lt;div&gt;Winning ticket&lt;/div&gt;&lt;div&gt;3/5&lt;br&gt;&lt;/div&gt;" style="text;html=1;strokeColor=none;fillColor=none;align=center;verticalAlign=middle;whiteSpace=wrap;rounded=0;" vertex="1" parent="1">
          <mxGeometry x="420" y="450" width="40" height="20" as="geometry" />
        </mxCell>
        <mxCell id="Mq0Bu19etkbV9ypL9swK-19" value="&lt;div&gt;Losing ticket&lt;/div&gt;&lt;div&gt;2/5&lt;br&gt;&lt;/div&gt;" style="text;html=1;strokeColor=none;fillColor=none;align=center;verticalAlign=middle;whiteSpace=wrap;rounded=0;" vertex="1" parent="1">
          <mxGeometry x="150" y="650" width="40" height="100" as="geometry" />
        </mxCell>
        <mxCell id="Mq0Bu19etkbV9ypL9swK-22" value="" style="edgeStyle=orthogonalEdgeStyle;rounded=0;orthogonalLoop=1;jettySize=auto;html=1;" edge="1" parent="1" source="Mq0Bu19etkbV9ypL9swK-20" target="Mq0Bu19etkbV9ypL9swK-21">
          <mxGeometry relative="1" as="geometry" />
        </mxCell>
        <mxCell id="Mq0Bu19etkbV9ypL9swK-25" value="" style="edgeStyle=orthogonalEdgeStyle;rounded=0;orthogonalLoop=1;jettySize=auto;html=1;" edge="1" parent="1" source="Mq0Bu19etkbV9ypL9swK-20" target="Mq0Bu19etkbV9ypL9swK-24">
          <mxGeometry relative="1" as="geometry" />
        </mxCell>
        <mxCell id="Mq0Bu19etkbV9ypL9swK-20" value="1" style="rounded=0;whiteSpace=wrap;html=1;" vertex="1" parent="1">
          <mxGeometry x="80" y="840" width="120" height="60" as="geometry" />
        </mxCell>
        <mxCell id="Mq0Bu19etkbV9ypL9swK-33" value="" style="edgeStyle=orthogonalEdgeStyle;rounded=0;orthogonalLoop=1;jettySize=auto;html=1;" edge="1" parent="1" source="Mq0Bu19etkbV9ypL9swK-24" target="Mq0Bu19etkbV9ypL9swK-30">
          <mxGeometry relative="1" as="geometry" />
        </mxCell>
        <mxCell id="Mq0Bu19etkbV9ypL9swK-36" value="" style="edgeStyle=orthogonalEdgeStyle;rounded=0;orthogonalLoop=1;jettySize=auto;html=1;" edge="1" parent="1" source="Mq0Bu19etkbV9ypL9swK-24" target="Mq0Bu19etkbV9ypL9swK-35">
          <mxGeometry relative="1" as="geometry" />
        </mxCell>
        <mxCell id="Mq0Bu19etkbV9ypL9swK-24" value="1 blue" style="rounded=0;whiteSpace=wrap;html=1;" vertex="1" parent="1">
          <mxGeometry x="80" y="980" width="120" height="60" as="geometry" />
        </mxCell>
        <mxCell id="Mq0Bu19etkbV9ypL9swK-35" value="2 blues" style="rounded=0;whiteSpace=wrap;html=1;" vertex="1" parent="1">
          <mxGeometry x="80" y="1120" width="120" height="60" as="geometry" />
        </mxCell>
        <mxCell id="Mq0Bu19etkbV9ypL9swK-28" value="" style="edgeStyle=orthogonalEdgeStyle;rounded=0;orthogonalLoop=1;jettySize=auto;html=1;" edge="1" parent="1" source="Mq0Bu19etkbV9ypL9swK-21" target="Mq0Bu19etkbV9ypL9swK-27">
          <mxGeometry relative="1" as="geometry" />
        </mxCell>
        <mxCell id="Mq0Bu19etkbV9ypL9swK-31" value="" style="edgeStyle=orthogonalEdgeStyle;rounded=0;orthogonalLoop=1;jettySize=auto;html=1;" edge="1" parent="1" source="Mq0Bu19etkbV9ypL9swK-21" target="Mq0Bu19etkbV9ypL9swK-30">
          <mxGeometry relative="1" as="geometry" />
        </mxCell>
        <mxCell id="Mq0Bu19etkbV9ypL9swK-21" value="1 red" style="rounded=0;whiteSpace=wrap;html=1;" vertex="1" parent="1">
          <mxGeometry x="280" y="840" width="120" height="60" as="geometry" />
        </mxCell>
        <mxCell id="Mq0Bu19etkbV9ypL9swK-30" value="1 red and 1 blue" style="rounded=0;whiteSpace=wrap;html=1;" vertex="1" parent="1">
          <mxGeometry x="280" y="980" width="120" height="60" as="geometry" />
        </mxCell>
        <mxCell id="Mq0Bu19etkbV9ypL9swK-27" value="2 reds" style="rounded=0;whiteSpace=wrap;html=1;" vertex="1" parent="1">
          <mxGeometry x="480" y="840" width="120" height="60" as="geometry" />
        </mxCell>
        <mxCell id="Mq0Bu19etkbV9ypL9swK-23" value="3/5 red" style="text;html=1;strokeColor=none;fillColor=none;align=center;verticalAlign=middle;whiteSpace=wrap;rounded=0;" vertex="1" parent="1">
          <mxGeometry x="220" y="840" width="40" height="20" as="geometry" />
        </mxCell>
        <mxCell id="Mq0Bu19etkbV9ypL9swK-26" value="2/5 blue" style="text;html=1;strokeColor=none;fillColor=none;align=center;verticalAlign=middle;whiteSpace=wrap;rounded=0;" vertex="1" parent="1">
          <mxGeometry x="150" y="930" width="40" height="20" as="geometry" />
        </mxCell>
        <mxCell id="Mq0Bu19etkbV9ypL9swK-29" value="3/5 red" style="text;html=1;strokeColor=none;fillColor=none;align=center;verticalAlign=middle;whiteSpace=wrap;rounded=0;" vertex="1" parent="1">
          <mxGeometry x="420" y="840" width="40" height="20" as="geometry" />
        </mxCell>
        <mxCell id="Mq0Bu19etkbV9ypL9swK-32" value="2/5 blue" style="text;html=1;strokeColor=none;fillColor=none;align=center;verticalAlign=middle;whiteSpace=wrap;rounded=0;" vertex="1" parent="1">
          <mxGeometry x="350" y="930" width="40" height="20" as="geometry" />
        </mxCell>
        <mxCell id="Mq0Bu19etkbV9ypL9swK-34" value="3/5 red" style="text;html=1;strokeColor=none;fillColor=none;align=center;verticalAlign=middle;whiteSpace=wrap;rounded=0;" vertex="1" parent="1">
          <mxGeometry x="220" y="960" width="40" height="50" as="geometry" />
        </mxCell>
        <mxCell id="Mq0Bu19etkbV9ypL9swK-37" value="2/5 blue" style="text;html=1;strokeColor=none;fillColor=none;align=center;verticalAlign=middle;whiteSpace=wrap;rounded=0;" vertex="1" parent="1">
          <mxGeometry x="150" y="1070" width="40" height="20" as="geometry" />
        </mxCell>
        <mxCell id="Mq0Bu19etkbV9ypL9swK-41" value="" style="edgeStyle=orthogonalEdgeStyle;rounded=0;orthogonalLoop=1;jettySize=auto;html=1;" edge="1" parent="1" source="Mq0Bu19etkbV9ypL9swK-39" target="Mq0Bu19etkbV9ypL9swK-40">
          <mxGeometry relative="1" as="geometry" />
        </mxCell>
        <mxCell id="Mq0Bu19etkbV9ypL9swK-43" value="" style="edgeStyle=orthogonalEdgeStyle;rounded=0;orthogonalLoop=1;jettySize=auto;html=1;" edge="1" parent="1" source="Mq0Bu19etkbV9ypL9swK-39" target="Mq0Bu19etkbV9ypL9swK-42">
          <mxGeometry relative="1" as="geometry" />
        </mxCell>
        <mxCell id="Mq0Bu19etkbV9ypL9swK-39" value="2" style="rounded=0;whiteSpace=wrap;html=1;" vertex="1" parent="1">
          <mxGeometry x="80" y="1220" width="120" height="60" as="geometry" />
        </mxCell>
        <mxCell id="Mq0Bu19etkbV9ypL9swK-50" value="" style="edgeStyle=orthogonalEdgeStyle;rounded=0;orthogonalLoop=1;jettySize=auto;html=1;" edge="1" parent="1" source="Mq0Bu19etkbV9ypL9swK-42" target="Mq0Bu19etkbV9ypL9swK-49">
          <mxGeometry relative="1" as="geometry" />
        </mxCell>
        <mxCell id="Mq0Bu19etkbV9ypL9swK-56" value="" style="edgeStyle=orthogonalEdgeStyle;rounded=0;orthogonalLoop=1;jettySize=auto;html=1;" edge="1" parent="1" source="Mq0Bu19etkbV9ypL9swK-42" target="Mq0Bu19etkbV9ypL9swK-55">
          <mxGeometry relative="1" as="geometry" />
        </mxCell>
        <mxCell id="Mq0Bu19etkbV9ypL9swK-42" value="Stefan wins one" style="rounded=0;whiteSpace=wrap;html=1;" vertex="1" parent="1">
          <mxGeometry x="80" y="1360" width="120" height="60" as="geometry" />
        </mxCell>
        <mxCell id="Mq0Bu19etkbV9ypL9swK-55" value="Stefan wins two" style="rounded=0;whiteSpace=wrap;html=1;" vertex="1" parent="1">
          <mxGeometry x="80" y="1500" width="120" height="60" as="geometry" />
        </mxCell>
        <mxCell id="Mq0Bu19etkbV9ypL9swK-49" value="John wins one and Stefan wins one" style="rounded=0;whiteSpace=wrap;html=1;" vertex="1" parent="1">
          <mxGeometry x="280" y="1360" width="120" height="60" as="geometry" />
        </mxCell>
        <mxCell id="Mq0Bu19etkbV9ypL9swK-45" value="" style="edgeStyle=orthogonalEdgeStyle;rounded=0;orthogonalLoop=1;jettySize=auto;html=1;" edge="1" parent="1" source="Mq0Bu19etkbV9ypL9swK-40" target="Mq0Bu19etkbV9ypL9swK-44">
          <mxGeometry relative="1" as="geometry" />
        </mxCell>
        <mxCell id="Mq0Bu19etkbV9ypL9swK-52" value="" style="edgeStyle=orthogonalEdgeStyle;rounded=0;orthogonalLoop=1;jettySize=auto;html=1;" edge="1" parent="1" source="Mq0Bu19etkbV9ypL9swK-40" target="Mq0Bu19etkbV9ypL9swK-49">
          <mxGeometry relative="1" as="geometry" />
        </mxCell>
        <mxCell id="Mq0Bu19etkbV9ypL9swK-40" value="John wins once" style="rounded=0;whiteSpace=wrap;html=1;" vertex="1" parent="1">
          <mxGeometry x="280" y="1220" width="120" height="60" as="geometry" />
        </mxCell>
        <mxCell id="Mq0Bu19etkbV9ypL9swK-44" value="John wins twice" style="rounded=0;whiteSpace=wrap;html=1;" vertex="1" parent="1">
          <mxGeometry x="480" y="1220" width="120" height="60" as="geometry" />
        </mxCell>
        <mxCell id="Mq0Bu19etkbV9ypL9swK-46" value="&lt;div&gt;John wins tennis&lt;/div&gt;&lt;div&gt;1/3&lt;br&gt;&lt;/div&gt;" style="text;html=1;strokeColor=none;fillColor=none;align=center;verticalAlign=middle;whiteSpace=wrap;rounded=0;" vertex="1" parent="1">
          <mxGeometry x="220" y="1210" width="40" height="20" as="geometry" />
        </mxCell>
        <mxCell id="Mq0Bu19etkbV9ypL9swK-47" value="&lt;div&gt;John wins badminton&lt;/div&gt;&lt;div&gt;4/7&lt;br&gt;&lt;/div&gt;" style="text;html=1;strokeColor=none;fillColor=none;align=center;verticalAlign=middle;whiteSpace=wrap;rounded=0;" vertex="1" parent="1">
          <mxGeometry x="420" y="1220" width="40" height="20" as="geometry" />
        </mxCell>
        <mxCell id="Mq0Bu19etkbV9ypL9swK-48" value="&lt;div&gt;John loses tennis&lt;/div&gt;&lt;div&gt;2/3&lt;br&gt;&lt;/div&gt;" style="text;html=1;strokeColor=none;fillColor=none;align=center;verticalAlign=middle;whiteSpace=wrap;rounded=0;" vertex="1" parent="1">
          <mxGeometry x="150" y="1280" width="40" height="70" as="geometry" />
        </mxCell>
        <mxCell id="Mq0Bu19etkbV9ypL9swK-51" value="&lt;div&gt;John wins badminton&lt;/div&gt;&lt;div&gt;4/7&lt;br&gt;&lt;/div&gt;" style="text;html=1;strokeColor=none;fillColor=none;align=center;verticalAlign=middle;whiteSpace=wrap;rounded=0;" vertex="1" parent="1">
          <mxGeometry x="220" y="1360" width="40" height="20" as="geometry" />
        </mxCell>
        <mxCell id="Mq0Bu19etkbV9ypL9swK-54" value="&lt;div&gt;John loses badminton&lt;br&gt;&lt;/div&gt;&lt;div&gt;3/7&lt;br&gt;&lt;/div&gt;" style="text;html=1;strokeColor=none;fillColor=none;align=center;verticalAlign=middle;whiteSpace=wrap;rounded=0;" vertex="1" parent="1">
          <mxGeometry x="360" y="1280" width="40" height="70" as="geometry" />
        </mxCell>
        <mxCell id="Mq0Bu19etkbV9ypL9swK-57" value="&lt;div&gt;John loses badminton&lt;br&gt;&lt;/div&gt;&lt;div&gt;3/7&lt;br&gt;&lt;/div&gt;" style="text;html=1;strokeColor=none;fillColor=none;align=center;verticalAlign=middle;whiteSpace=wrap;rounded=0;" vertex="1" parent="1">
          <mxGeometry x="160" y="1420" width="40" height="70" as="geometry" />
        </mxCell>
        <mxCell id="Mq0Bu19etkbV9ypL9swK-58" value="" style="edgeStyle=orthogonalEdgeStyle;rounded=0;orthogonalLoop=1;jettySize=auto;html=1;" edge="1" source="Mq0Bu19etkbV9ypL9swK-60" target="Mq0Bu19etkbV9ypL9swK-68" parent="1">
          <mxGeometry relative="1" as="geometry" />
        </mxCell>
        <mxCell id="Mq0Bu19etkbV9ypL9swK-59" value="" style="edgeStyle=orthogonalEdgeStyle;rounded=0;orthogonalLoop=1;jettySize=auto;html=1;" edge="1" source="Mq0Bu19etkbV9ypL9swK-60" target="Mq0Bu19etkbV9ypL9swK-63" parent="1">
          <mxGeometry relative="1" as="geometry" />
        </mxCell>
        <mxCell id="Mq0Bu19etkbV9ypL9swK-60" value="3" style="rounded=0;whiteSpace=wrap;html=1;" vertex="1" parent="1">
          <mxGeometry x="80" y="1600" width="120" height="60" as="geometry" />
        </mxCell>
        <mxCell id="Mq0Bu19etkbV9ypL9swK-61" value="" style="edgeStyle=orthogonalEdgeStyle;rounded=0;orthogonalLoop=1;jettySize=auto;html=1;" edge="1" source="Mq0Bu19etkbV9ypL9swK-63" target="Mq0Bu19etkbV9ypL9swK-65" parent="1">
          <mxGeometry relative="1" as="geometry" />
        </mxCell>
        <mxCell id="Mq0Bu19etkbV9ypL9swK-62" value="" style="edgeStyle=orthogonalEdgeStyle;rounded=0;orthogonalLoop=1;jettySize=auto;html=1;" edge="1" source="Mq0Bu19etkbV9ypL9swK-63" target="Mq0Bu19etkbV9ypL9swK-64" parent="1">
          <mxGeometry relative="1" as="geometry" />
        </mxCell>
        <mxCell id="Mq0Bu19etkbV9ypL9swK-63" value="Bus is on time" style="rounded=0;whiteSpace=wrap;html=1;" vertex="1" parent="1">
          <mxGeometry x="80" y="1740" width="120" height="60" as="geometry" />
        </mxCell>
        <mxCell id="Mq0Bu19etkbV9ypL9swK-64" value="Bus is on time both days" style="rounded=0;whiteSpace=wrap;html=1;" vertex="1" parent="1">
          <mxGeometry x="80" y="1880" width="120" height="60" as="geometry" />
        </mxCell>
        <mxCell id="Mq0Bu19etkbV9ypL9swK-65" value="Bus is late only once" style="rounded=0;whiteSpace=wrap;html=1;" vertex="1" parent="1">
          <mxGeometry x="280" y="1740" width="120" height="60" as="geometry" />
        </mxCell>
        <mxCell id="Mq0Bu19etkbV9ypL9swK-66" value="" style="edgeStyle=orthogonalEdgeStyle;rounded=0;orthogonalLoop=1;jettySize=auto;html=1;" edge="1" source="Mq0Bu19etkbV9ypL9swK-68" target="Mq0Bu19etkbV9ypL9swK-69" parent="1">
          <mxGeometry relative="1" as="geometry" />
        </mxCell>
        <mxCell id="Mq0Bu19etkbV9ypL9swK-67" value="" style="edgeStyle=orthogonalEdgeStyle;rounded=0;orthogonalLoop=1;jettySize=auto;html=1;" edge="1" source="Mq0Bu19etkbV9ypL9swK-68" target="Mq0Bu19etkbV9ypL9swK-65" parent="1">
          <mxGeometry relative="1" as="geometry" />
        </mxCell>
        <mxCell id="Mq0Bu19etkbV9ypL9swK-68" value="Bus is late once" style="rounded=0;whiteSpace=wrap;html=1;" vertex="1" parent="1">
          <mxGeometry x="280" y="1600" width="120" height="60" as="geometry" />
        </mxCell>
        <mxCell id="Mq0Bu19etkbV9ypL9swK-69" value="Bus is late both days" style="rounded=0;whiteSpace=wrap;html=1;" vertex="1" parent="1">
          <mxGeometry x="480" y="1600" width="120" height="60" as="geometry" />
        </mxCell>
        <mxCell id="Mq0Bu19etkbV9ypL9swK-70" value="Bus is late 1/5" style="text;html=1;strokeColor=none;fillColor=none;align=center;verticalAlign=middle;whiteSpace=wrap;rounded=0;" vertex="1" parent="1">
          <mxGeometry x="220" y="1600" width="40" height="20" as="geometry" />
        </mxCell>
        <mxCell id="Mq0Bu19etkbV9ypL9swK-78" value="Bus is late 1/5" style="text;html=1;strokeColor=none;fillColor=none;align=center;verticalAlign=middle;whiteSpace=wrap;rounded=0;" vertex="1" parent="1">
          <mxGeometry x="220" y="1740" width="40" height="20" as="geometry" />
        </mxCell>
        <mxCell id="Mq0Bu19etkbV9ypL9swK-79" value="Bus is late 1/5" style="text;html=1;strokeColor=none;fillColor=none;align=center;verticalAlign=middle;whiteSpace=wrap;rounded=0;" vertex="1" parent="1">
          <mxGeometry x="420" y="1600" width="40" height="20" as="geometry" />
        </mxCell>
        <mxCell id="Mq0Bu19etkbV9ypL9swK-80" value="Bus is ontime 4/5" style="text;html=1;strokeColor=none;fillColor=none;align=center;verticalAlign=middle;whiteSpace=wrap;rounded=0;" vertex="1" parent="1">
          <mxGeometry x="150" y="1690" width="40" height="20" as="geometry" />
        </mxCell>
        <mxCell id="Mq0Bu19etkbV9ypL9swK-81" value="Bus is ontime 4/5" style="text;html=1;strokeColor=none;fillColor=none;align=center;verticalAlign=middle;whiteSpace=wrap;rounded=0;" vertex="1" parent="1">
          <mxGeometry x="350" y="1690" width="40" height="20" as="geometry" />
        </mxCell>
        <mxCell id="Mq0Bu19etkbV9ypL9swK-82" value="Bus is ontime 4/5" style="text;html=1;strokeColor=none;fillColor=none;align=center;verticalAlign=middle;whiteSpace=wrap;rounded=0;" vertex="1" parent="1">
          <mxGeometry x="150" y="1830" width="40" height="20" as="geometry" />
        </mxCell>
      </root>
    </mxGraphModel>
  </diagram>
</mxfile>
